# Made in Blockbench 4.7.1
mtllib Pizza.mtl

o cube
v 1.625 0.1875 1.625
v 1.625 0.1875 -1.625
v 1.625 -0.1875 1.625
v 1.625 -0.1875 -1.625
v 1.625 0.1875 -1.21875
v 1.625 -0.1875 -1.21875
v -1.625 -0.1875 -1.21875
v -1.625 0.1875 -1.21875
v 1.625 0.1875 1.21875
v -1.625 0.1875 1.21875
v -1.625 -0.1875 1.21875
v 1.625 -0.1875 1.21875
v -1.21875 0.1875 1.21875
v -1.21875 0.1875 -1.21875
v -1.21875 0.1875 -1.625
v -1.21875 -0.1875 -1.625
v -1.21875 -0.1875 -1.21875
v -1.21875 -0.1875 1.21875
v -1.21875 -0.1875 1.625
v -1.21875 0.1875 1.625
vt 0.76953125 1
vt 0.46484375 1
vt 0.46484375 0.953125
vt 0.76953125 0.953125
vt 0.4140625 0.84375
vt 0.71875 0.84375
vt 0.71875 0.890625
vt 0.4140625 0.890625
vt 0.40625 0.94921875
vt 0.05078125 0.94921875
vt 0.05078125 0.64453125
vt 0.40625 0.64453125
vt 0.796875 0.55859375
vt 0.44140625 0.55859375
vt 0.44140625 0.25390625
vt 0.796875 0.25390625
vt 0.359375 0.5859375
vt 0 0.5859375
vt 0 0.5390625
vt 0.359375 0.5390625
vt 0.4140625 0.8984375
vt 0.7734375 0.8984375
vt 0.7734375 0.9453125
vt 0.4140625 0.9453125
vt 0.8203125 1
vt 0.76953125 1
vt 0.76953125 0.953125
vt 0.8203125 0.953125
vt 0.796875 0.25390625
vt 0.44140625 0.25390625
vt 0.44140625 0.203125
vt 0.796875 0.203125
vt 0.40625 1
vt 0.05078125 1
vt 0.05078125 0.94921875
vt 0.40625 0.94921875
vt 0.40625 0.64453125
vt 0.05078125 0.64453125
vt 0.05078125 0.59375
vt 0.40625 0.59375
vt 0.796875 0.609375
vt 0.44140625 0.609375
vt 0.44140625 0.55859375
vt 0.796875 0.55859375
vt 0.4140625 0.953125
vt 0.46484375 0.953125
vt 0.46484375 1
vt 0.4140625 1
vt 0 0.64453125
vt 0.05078125 0.64453125
vt 0.05078125 0.94921875
vt 0 0.94921875
vt 0 0.94921875
vt 0.05078125 0.94921875
vt 0.05078125 1
vt 0.44140625 0.203125
vt 0.44140625 0.25390625
vt 0.390625 0.25390625
vt 0.390625 0.25390625
vt 0.44140625 0.25390625
vt 0.44140625 0.55859375
vt 0.390625 0.55859375
vt 0.390625 0.55859375
vt 0.44140625 0.55859375
vt 0.44140625 0.609375
vt 0.05078125 0.59375
vt 0.05078125 0.64453125
vt 0 0.64453125
vt 0.484375 0.7890625
vt 0.484375 0.8359375
vt 0.4140625 0.8359375
vt 0.4140625 0.7890625
vt 0.4140625 0.78125
vt 0.4140625 0.734375
vt 0.484375 0.734375
vt 0.484375 0.78125
vn 1 0 0
vn -1 0 0
vn 0 1 0
vn 0 -1 0
vn 0 0 1
vn 0 0 -1
vn 1 0 0
vn 0 -1 0
vn 0 1 0
vn 0 1 0
vn 0 -1 0
vn 1 0 0
vn 0 1 0
vn 0 1 0
vn 0 -1 0
vn 0 -1 0
vn 0 -1 0
vn 0 1 0
vn -0.7071067811865476 0 -0.7071067811865476
vn -0.7071067811865476 0 0.7071067811865476
usemtl m_82db6836-9aee-f5cb-c317-ee9fef63073c
f 5/1/1 9/2/1 12/3/1 6/4/1
f 7/5/2 11/6/2 10/7/2 8/8/2
f 5/9/3 14/10/3 13/11/3 9/12/3
f 12/13/4 18/14/4 17/15/4 6/16/4
f 1/17/5 20/18/5 19/19/5 3/20/5
f 4/21/6 16/22/6 15/23/6 2/24/6
f 2/25/7 5/26/7 6/27/7 4/28/7
f 6/29/8 17/30/8 16/31/8 4/32/8
f 2/33/9 15/34/9 14/35/9 5/36/9
f 9/37/10 13/38/10 20/39/10 1/40/10
f 3/41/11 19/42/11 18/43/11 12/44/11
f 3/45/12 12/46/12 9/47/12 1/48/12
f 10/49/13 13/50/13 14/51/13 8/52/13
f 8/53/14 14/54/14 15/55/14
f 16/56/15 17/57/15 7/58/15
f 7/59/16 17/60/16 18/61/16 11/62/16
f 11/63/17 18/64/17 19/65/17
f 20/66/18 13/67/18 10/68/18
f 7/69/19 8/70/19 15/71/19 16/72/19
f 10/73/20 11/74/20 19/75/20 20/76/20