# Made in Blockbench 4.7.2
mtllib smoke.mtl

o sphere
v 0 0.3125 -0.018749999999999996
v 0 0.56875 0
v 0.024111652351681563 0.5258883476483185 0.05713834764831843
v 0.051776695296636886 0.4375 0.125
v 0.03661165235168157 0.3741116523516815 0.06963834764831844
v 0.09463834764831847 0.5133883476483185 0.03661165235168157
v 0.07499999999999996 0.4375 0.014276695296636888
v 0.08838834764831846 0.34911165235168157 0.036611652351681574
v 0.13838834764831848 0.5008883476483186 -0.055361652351681556
v 0.09374999999999997 0.4375 -0.03302669529663688
v 0.11338834764831848 0.34911165235168157 -0.061611652351681555
v 0.036611652351681574 0.5696383476483183 -0.08838834764831845
v 0.0392766952966369 0.4375 -0.06874999999999998
v 0.036611652351681574 0.34911165235168157 -0.08838834764831846
v -0.03661165235168155 0.5133883476483184 -0.08838834764831846
v -0.014276695296636872 0.4375 -0.13750000000000004
v -0.03661165235168155 0.38036165235168146 -0.08838834764831846
v -0.11338834764831843 0.5258883476483185 -0.036611652351681616
v -0.09374999999999997 0.4375 -0.02677669529663696
v -0.11338834764831845 0.34911165235168157 -0.03661165235168162
v -0.06338834764831841 0.5008883476483186 0.030361652351681583
v -0.12499999999999999 0.4375 0.051776695296636914
v -0.08838834764831845 0.34911165235168157 0.03661165235168159
v -0.03661165235168162 0.5258883476483185 0.08838834764831842
v -0.05177669529663697 0.4375 0.04374999999999995
v -0.03661165235168162 0.34911165235168157 0.08838834764831843
vt 0.47614302703441674 0.627069152305503
vt 0.5 0.5984542993157957
vt 0.5 0.65625
vt 0.15625 0.8125
vt 0.09884113676334466 0.8125
vt 0.12876547474371441 0.7644941933408145
vt 0.14900945419450765 0.7876191759653807
vt 0.03125 0.6269559980512613
vt 0 0.5919469260551329
vt 0.0152331833189433 0.5625
vt 0.03125 0.5857001452467804
vt 0.17343472663903917 0.5625
vt 0.18469941585859564 0.5936813780851137
vt 0.12780058414140436 0.5936813780851138
vt 0.12031574610479673 0.8922333556107734
vt 0.15625 0.8556147742549823
vt 0.15625 0.9375
vt 0.5 0.7385372452272909
vt 0.46875 0.7280372349078479
vt 0.47113516873048544 0.7027055278159517
vt 0.5 0.6875
vt 0.45849375 1
vt 0.449321875 0.96875
vt 0.5 0.96875
vt 0.483728125 0.999334375
vt 0.28125 0.84375
vt 0.2534333201171677 0.8861115943256584
vt 0.2179346359698878 0.84375
vt 0.025420063655492903 0.8243651975691422
vt 0.0625 0.876024561230442
vt 0.02542006365549289 0.90625
vt 0.03673126584135536 1
vt 0 0.9833241218979949
vt 0.0035771740409615005 0.9375
vt 0.06275709444066824 0.9375
vt 0.4537262898266401 0.9375
vt 0.40625 0.9375
vt 0.41015976616083627 0.8970321807774365
vt 0.453981236576385 0.905777492029784
vt 0.34010989582862294 0.5334706253849658
vt 0.3125 0.5633139548975235
vt 0.3125 0.5
vt 0.3459463153487335 0.90625
vt 0.31973247865142107 0.8682474011479098
vt 0.375 0.8682474011479098
vt 0.2543076387526391 0.9807153590166506
vt 0.1875 0.9807153590166506
vt 0.19308689270185073 0.9375
vt 0.2272261930499233 0.9545270163277465
vt 0.375 0.59375
vt 0.375 0.5484600110874034
vt 0.41220056753087486 0.56262504499266
vt 0.40449361503763487 0.5855099632758752
vt 0.15625 0.5206976757480544
vt 0.12383689537169884 0.49759291361726354
vt 0.15625 0.46875
vt 0.21038908889267993 0.7739609821475788
vt 0.25 0.749186519241925
vt 0.24999999999999994 0.8125
vt 0.331584375 0.8085125
vt 0.305121875 0.78125
vt 0.37326875 0.78125
vt 0.375 0.8125
vt 0.03125 0.7660635484912239
vt 0.002281073784467902 0.7363136070741851
vt 0 0.6875
vt 0.03125 0.705454483172345
vt 0.125 0.65625
vt 0.09745611010170846 0.6966182631324818
vt 0.06475652832956712 0.65625
vt 0.3125 1
vt 0.3403361455215709 0.9664206724482152
vt 0.3758127214951703 1
vt 0.3952402682839937 0.6714109397577492
vt 0.3952402682839937 0.6258730989942013
vt 0.4375 0.625
vt 0.4166832176830354 0.6502728814514438
vt 0.26428727117874157 0.59375
vt 0.21875 0.59375
vt 0.22540060900879982 0.5556384262190333
vt 0.2651607068485472 0.5612951303313534
vt 0.1909075649023411 0.6680518442199999
vt 0.15625 0.6852441637636222
vt 0.15625000000000003 0.625
vt 0.46886850652829504 0.8060082624647988
vt 0.49988149347170496 0.7913342832417485
vt 0.4998814934717049 0.84375
vt 0.5245502137639635 0.5353344718151504
vt 0.48807624674851 0.5625
vt 0.49299208045119125 0.53125
vt 0.53125 0.53125
vt 0.0797352387757563 0.5947355131833707
vt 0.0625 0.5494746103251003
vt 0.09375 0.53125
vt 0.09375 0.5737269327335806
vt 0.43449578479357276 0.71875
vt 0.4191516758309809 0.751992043805911
vt 0.375 0.71875
vt 0.5100841593450749 0.9375
vt 0.5338624851703784 0.9129928522016264
vt 0.5625 0.9375
vt 0.26974375 0.65625
vt 0.25 0.625
vt 0.3158125 0.625
vt 0.283984375 0.64756875
vt 0.03125 0.53125
vt 0 0.5065326982265351
vt 0.027463069500476917 0.47771553518300147
vt 0.03125 0.4786841326509659
vt 0.34375 0.7311356363166273
vt 0.3072391860641444 0.7469975975256827
vt 0.3072391860641444 0.6875
vn 0.2890116260933873 0.8203660547890587 0.49342863327201797
vn 0.8878133736340872 0.4208475549266759 0.18621157082388703
vn 0.14119985204183397 -0.6701678210695667 0.7286547147903687
vn -0.02464367401241833 -0.8152982936078541 0.578516535434633
vn 0.47147051741668383 0.8755761192231842 0.10527112924687718
vn 0.8777100147089766 -0.32952630275314154 0.34790450683113217
vn 0.9485831784907434 0.20469225148138617 0.2414353654042412
vn 0.33520724280251446 -0.938273416320963 0.08531764529172815
vn 0.49791115314099016 0.8402346461904745 0.21468633612546925
vn 0.4533049702060763 -0.5627749964944327 -0.6912299959544289
vn 0.30798158829769817 0.3540159781873947 -0.883074191932733
vn 0.14020227036554342 -0.9048415651267468 -0.4020013251263311
vn -0.5917830646286153 0.7703522072816215 -0.2373821416094688
vn 0.786666526296806 -0.07520524283059295 -0.6127805054462064
vn 0.09106349889152487 0.21337505045403266 -0.9727170847751017
vn -0.32309246620478066 -0.7570527392087615 -0.5678753457742499
vn -0.1755950427507554 0.8654006233977732 -0.4693060216789318
vn -0.8047388272414692 0.1369609041154933 -0.5776133054855055
vn -0.3003475298721395 -0.5515002639607482 -0.7782280001072496
vn -0.13749807381158285 -0.7445439076240115 -0.6532600166228392
vn -0.4451566421036472 0.677681703985995 0.5853059644951891
vn -0.9019431760353812 -0.2403207314544206 -0.3588097730503192
vn -0.932303990572148 0.17172353513572625 0.3183084928865983
vn -0.32100906104600846 -0.9407131153694155 0.10959934898679337
vn -0.7222890896415306 0.6906671929969744 0.035739327112987294
vn 0.10619601198490468 0.22406867331001717 0.9687701671085825
vn -0.6532814824381884 -0.3826834323650898 0.6532814824381882
vn -0.23962019993945974 -0.9408317169196344 0.23962019993945965
vn 0.26067150328097793 0.8218790042162955 0.5065227238788661
vn -0.5926378460372609 -0.2797745253331454 0.7553188720129592
vn 0.06996887916384442 0.45923291976221864 0.8855560294838623
vn 0.38726034152452615 -0.823858723892636 0.4138674074486961
usemtl m_8e272532-615b-91ce-d35d-d03af63dc058
f 3/1/1 6/2/1 2/3/1
f 3/4/2 4/5/2 7/6/2 6/7/2
f 4/8/3 5/9/3 8/10/3 7/11/3
f 8/12/4 5/13/4 1/14/4
f 6/15/5 9/16/5 2/17/5
f 6/18/6 7/19/6 10/20/6 9/21/6
f 7/22/7 8/23/7 11/24/7 10/25/7
f 11/26/8 8/27/8 1/28/8
f 9/29/9 12/30/9 2/31/9
f 9/32/10 10/33/10 13/34/10 12/35/10
f 10/36/11 11/37/11 14/38/11 13/39/11
f 14/40/12 11/41/12 1/42/12
f 12/43/13 15/44/13 2/45/13
f 12/46/14 13/47/14 16/48/14 15/49/14
f 13/50/15 14/51/15 17/52/15 16/53/15
f 17/54/16 14/55/16 1/56/16
f 15/57/17 18/58/17 2/59/17
f 15/60/18 16/61/18 19/62/18 18/63/18
f 16/64/19 17/65/19 20/66/19 19/67/19
f 20/68/20 17/69/20 1/70/20
f 18/71/21 21/72/21 2/73/21
f 18/74/22 19/75/22 22/76/22 21/77/22
f 19/78/23 20/79/23 23/80/23 22/81/23
f 23/82/24 20/83/24 1/84/24
f 21/85/25 24/86/25 2/87/25
f 21/88/26 22/89/26 25/90/26 24/91/26
f 22/92/27 23/93/27 26/94/27 25/95/27
f 26/96/28 23/97/28 1/98/28
f 24/99/29 3/100/29 2/101/29
f 24/102/30 25/103/30 4/104/30 3/105/30
f 25/106/31 26/107/31 5/108/31 4/109/31
f 5/110/32 26/111/32 1/112/32